ffmpeg version 4.2.7-0ubuntu0.1 Copyright (c) 2000-2022 the FFmpeg developers
  built with gcc 9 (Ubuntu 9.4.0-1ubuntu1~20.04.1)
  configuration: --prefix=/usr --extra-version=0ubuntu0.1 --toolchain=hardened --libdir=/usr/lib/x86_64-linux-gnu --incdir=/usr/include/x86_64-linux-gnu --arch=amd64 --enable-gpl --disable-stripping --enable-avresample --disable-filter=resample --enable-avisynth --enable-gnutls --enable-ladspa --enable-libaom --enable-libass --enable-libbluray --enable-libbs2b --enable-libcaca --enable-libcdio --enable-libcodec2 --enable-libflite --enable-libfontconfig --enable-libfreetype --enable-libfribidi --enable-libgme --enable-libgsm --enable-libjack --enable-libmp3lame --enable-libmysofa --enable-libopenjpeg --enable-libopenmpt --enable-libopus --enable-libpulse --enable-librsvg --enable-librubberband --enable-libshine --enable-libsnappy --enable-libsoxr --enable-libspeex --enable-libssh --enable-libtheora --enable-libtwolame --enable-libvidstab --enable-libvorbis --enable-libvpx --enable-libwavpack --enable-libwebp --enable-libx265 --enable-libxml2 --enable-libxvid --enable-libzmq --enable-libzvbi --enable-lv2 --enable-omx --enable-openal --enable-opencl --enable-opengl --enable-sdl2 --enable-libdc1394 --enable-libdrm --enable-libiec61883 --enable-nvenc --enable-chromaprint --enable-frei0r --enable-libx264 --enable-shared
  libavutil      56. 31.100 / 56. 31.100
  libavcodec     58. 54.100 / 58. 54.100
  libavformat    58. 29.100 / 58. 29.100
  libavdevice    58.  8.100 / 58.  8.100
  libavfilter     7. 57.100 /  7. 57.100
  libavresample   4.  0.  0 /  4.  0.  0
  libswscale      5.  5.100 /  5.  5.100
  libswresample   3.  5.100 /  3.  5.100
  libpostproc    55.  5.100 / 55.  5.100
Routing option strict to both codec and muxer layer
[h264 @ 0x5578ede1fd80] Reinit context to 1280x720, pix_fmt: yuv420p
Input #0, mov,mp4,m4a,3gp,3g2,mj2, from '/var/www/html/project/media/video/original/lv_0_20240101011853_ZuHNHtf.mp4':
  Metadata:
    major_brand     : isom
    minor_version   : 512
    compatible_brands: isomiso2avc1mp41
    Hw              : 1
                    : 
    LvMetaInfo      : {"data":{"appVersion":"7.0.0","capabilityName":"","ccTtVid":"","draftInfo":{"adjust":0,"aiMatting":0,"audioToText":0,"chroma":0,"coverTemplateId":"","curveSpeed":0,"faceEffectId":"","filterId":"","gameplayAlgorithm":"","graphs":0,"keyframe":0,"mask":0,"mi
    bitRate         : 4000000
                    : 
    copyright       : f3c1620e708461aa4d89b654b25e182e
    maxrate         : 30000000
                    : 
    te_is_reencode  : 1
                    : 
    encoder         : bytevehwavc
  Duration: 00:00:54.73, start: 0.000000, bitrate: 3800 kb/s
    Stream #0:0(und): Video: h264 (High), 1 reference frame (avc1 / 0x31637661), yuv420p(tv, bt709, left), 1272x720 (1280x720), 3668 kb/s, 30 fps, 30 tbr, 1000k tbn, 2000k tbc (default)
    Metadata:
      handler_name    : VideoHandler
    Stream #0:1(und): Audio: aac (LC) (mp4a / 0x6134706D), 44100 Hz, stereo, fltp, 128 kb/s (default)
    Metadata:
      handler_name    : SoundHandler
Input #1, png_pipe, from '/var/www/html/project/static/images/templates/logo.png':
  Duration: N/A, bitrate: N/A
    Stream #1:0: Video: png, 1 reference frame, rgba(pc), 1920x1080 [SAR 2835:2835 DAR 16:9], 25 tbr, 25 tbn, 25 tbc
[Parsed_scale_0 @ 0x5578ede41400] w:1280 h:720 flags:'bilinear' interl:0
[Parsed_scale_2 @ 0x5578ede81640] w:1280 h:720 flags:'bilinear' interl:0
Stream mapping:
  Stream #0:0 (h264) -> scale (graph 0)
  Stream #1:0 (png) -> scale (graph 0)
  overlay (graph 0) -> Stream #0:0 (libx264)
  Stream #0:1 -> #0:1 (aac (native) -> aac (native))
Press [q] to stop, [?] for help
[h264 @ 0x5578edf14540] Reinit context to 1280x720, pix_fmt: yuv420p
[graph_1_in_0_1 @ 0x5578ee423a80] tb:1/44100 samplefmt:fltp samplerate:44100 chlayout:0x3
[Parsed_scale_0 @ 0x5578ee7a97c0] w:1280 h:720 flags:'bilinear' interl:0
[Parsed_scale_2 @ 0x5578ee80a840] w:1280 h:720 flags:'bilinear' interl:0
[graph 0 input from stream 0:0 @ 0x5578ee80cc80] w:1272 h:720 pixfmt:yuv420p tb:1/1000000 fr:30/1 sar:0/1 sws_param:flags=2
[graph 0 input from stream 1:0 @ 0x5578ee80dc40] w:1920 h:1080 pixfmt:rgba tb:1/25 fr:25/1 sar:2835/2835 sws_param:flags=2
[Parsed_scale_0 @ 0x5578ee7a97c0] w:1272 h:720 fmt:yuv420p sar:0/1 -> w:1280 h:720 fmt:yuv420p sar:0/1 flags:0x2
[Parsed_setsar_1 @ 0x5578ee807640] w:1280 h:720 sar:0/1 dar:16/9 -> sar:1/1 dar:16/9
[Parsed_scale_2 @ 0x5578ee80a840] w:1920 h:1080 fmt:rgba sar:2835/2835 -> w:1280 h:720 fmt:yuva420p sar:1/1 flags:0x2
[Parsed_setsar_3 @ 0x5578ee80b300] w:1280 h:720 sar:1/1 dar:16/9 -> sar:1/1 dar:16/9
[Parsed_overlay_4 @ 0x5578ee80bf00] main w:1280 h:720 fmt:yuv420p overlay w:1280 h:720 fmt:yuva420p
[Parsed_overlay_4 @ 0x5578ee80bf00] [framesync @ 0x5578ee80c028] Selected 1/1000000 time base
[Parsed_overlay_4 @ 0x5578ee80bf00] [framesync @ 0x5578ee80c028] Sync level 2
[libx264 @ 0x5578ede3d4c0] using SAR=1/1
[libx264 @ 0x5578ede3d4c0] using cpu capabilities: MMX2 SSE2Fast SSSE3 SSE4.2 AVX FMA3 BMI2 AVX2
[libx264 @ 0x5578ede3d4c0] profile High, level 3.1
[libx264 @ 0x5578ede3d4c0] 264 - core 155 r2917 0a84d98 - H.264/MPEG-4 AVC codec - Copyleft 2003-2018 - http://www.videolan.org/x264.html - options: cabac=1 ref=1 deblock=1:0:0 analyse=0x3:0x113 me=hex subme=2 psy=1 psy_rd=1.00:0.00 mixed_ref=0 me_range=16 chroma_me=1 trellis=0 8x8dct=1 cqm=0 deadzone=21,11 fast_pskip=1 chroma_qp_offset=0 threads=22 lookahead_threads=5 sliced_threads=0 nr=0 decimate=1 interlaced=0 bluray_compat=0 constrained_intra=0 bframes=3 b_pyramid=2 b_adapt=1 b_bias=0 direct=1 weightb=1 open_gop=0 weightp=1 keyint=250 keyint_min=25 scenecut=40 intra_refresh=0 rc_lookahead=10 rc=crf mbtree=1 crf=18.0 qcomp=0.60 qpmin=0 qpmax=69 qpstep=4 ip_ratio=1.40 aq=1:1.00
Output #0, mp4, to '/var/www/html/project/media/video/watermarks/lv_0_20240101011853_ZuHNHtf.mp4':
  Metadata:
    major_brand     : isom
    minor_version   : 512
    compatible_brands: isomiso2avc1mp41
    Hw              : 1
                    : 
    LvMetaInfo      : {"data":{"appVersion":"7.0.0","capabilityName":"","ccTtVid":"","draftInfo":{"adjust":0,"aiMatting":0,"audioToText":0,"chroma":0,"coverTemplateId":"","curveSpeed":0,"faceEffectId":"","filterId":"","gameplayAlgorithm":"","graphs":0,"keyframe":0,"mask":0,"mi
    bitRate         : 4000000
                    : 
    copyright       : f3c1620e708461aa4d89b654b25e182e
    maxrate         : 30000000
                    : 
    te_is_reencode  : 1
                    : 
    encoder         : Lavf58.29.100
    Stream #0:0: Video: h264 (libx264), 1 reference frame (avc1 / 0x31637661), yuv420p, 1280x720 [SAR 1:1 DAR 16:9], q=-1--1, 30 fps, 15360 tbn, 30 tbc (default)
    Metadata:
      encoder         : Lavc58.54.100 libx264
    Side data:
      cpb: bitrate max/min/avg: 0/0/0 buffer size: 0 vbv_delay: -1
    Stream #0:1(und): Audio: aac (LC) (mp4a / 0x6134706D), 44100 Hz, stereo, fltp, delay 1024, 128 kb/s (default)
    Metadata:
      handler_name    : SoundHandler
      encoder         : Lavc58.54.100 aac
[Parsed_overlay_4 @ 0x5578ee80bf00] [framesync @ 0x5578ee80c028] Sync level 0
No more output streams to write to, finishing.
frame= 1641 fps= 79 q=-1.0 Lsize=   38743kB time=00:00:54.68 bitrate=5804.0kbits/s speed=2.64x    
[AVIOContext @ 0x5578ede1e0c0] Statistics: 0 seeks, 41 writeouts
video:37804kB audio:880kB subtitle:0kB other streams:0kB global headers:0kB muxing overhead: 0.151156%
Input file #0 (/var/www/html/project/media/video/original/lv_0_20240101011853_ZuHNHtf.mp4):
  Input stream #0:0 (video): 1641 packets read (25081253 bytes); 1641 frames decoded; 
  Input stream #0:1 (audio): 2357 packets read (876073 bytes); 2355 frames decoded (2411520 samples); 
  Total: 3998 packets (25957326 bytes) demuxed
Input file #1 (/var/www/html/project/static/images/templates/logo.png):
  Input stream #1:0 (video): 1 packets read (111578 bytes); 1 frames decoded; 
  Total: 1 packets (111578 bytes) demuxed
Output file #0 (/var/www/html/project/media/video/watermarks/lv_0_20240101011853_ZuHNHtf.mp4):
  Output stream #0:0 (video): 1641 frames encoded; 1641 packets muxed (38711273 bytes); 
  Output stream #0:1 (audio): 2355 frames encoded (2411520 samples); 2356 packets muxed (901481 bytes); 
  Total: 3997 packets (39612754 bytes) muxed
[AVIOContext @ 0x5578ede3b580] Statistics: 2 seeks, 155 writeouts
[libx264 @ 0x5578ede3d4c0] frame I:8     Avg QP:15.96  size: 71615
[libx264 @ 0x5578ede3d4c0] frame P:531   Avg QP:19.11  size: 38245
[libx264 @ 0x5578ede3d4c0] frame B:1102  Avg QP:21.05  size: 16179
[libx264 @ 0x5578ede3d4c0] consecutive B-frames:  7.8%  5.2%  8.2% 78.7%
[libx264 @ 0x5578ede3d4c0] mb I  I16..4: 18.4% 40.4% 41.2%
[libx264 @ 0x5578ede3d4c0] mb P  I16..4: 11.8% 28.6%  7.5%  P16..4: 20.8% 13.2%  8.9%  0.0%  0.0%    skip: 9.2%
[libx264 @ 0x5578ede3d4c0] mb B  I16..4:  2.8%  5.0%  0.6%  B16..8: 31.0% 15.5%  2.8%  direct:15.6%  skip:26.8%  L0:43.8% L1:39.7% BI:16.5%
[libx264 @ 0x5578ede3d4c0] 8x8 transform intra:59.2% inter:33.4%
[libx264 @ 0x5578ede3d4c0] coded y,uvDC,uvAC intra: 55.7% 82.5% 34.3% inter: 20.5% 40.7% 1.5%
[libx264 @ 0x5578ede3d4c0] i16 v,h,dc,p: 35% 41% 12% 13%
[libx264 @ 0x5578ede3d4c0] i8 v,h,dc,ddl,ddr,vr,hd,vl,hu: 23% 37% 14%  3%  4%  4%  5%  4%  5%
[libx264 @ 0x5578ede3d4c0] i4 v,h,dc,ddl,ddr,vr,hd,vl,hu: 27% 29% 11%  5%  6%  6%  6%  5%  6%
[libx264 @ 0x5578ede3d4c0] i8c dc,h,v,p: 37% 33% 18% 11%
[libx264 @ 0x5578ede3d4c0] Weighted P-Frames: Y:0.4% UV:0.4%
[libx264 @ 0x5578ede3d4c0] kb/s:5661.51
[aac @ 0x5578ede8e440] Qavg: 419.956
[AVIOContext @ 0x5578ede27040] Statistics: 88914115 bytes read, 2511 seeks
[AVIOContext @ 0x5578ede22540] Statistics: 111578 bytes read, 0 seeks
